<?xml version="1.0" encoding="UTF-8" standalone="no"?>
<svg
   width="4.2333331mm"
   height="4.2333331mm"
   viewBox="0 0 15.999999 15.999999"
   version="1.1"
   id="svg396"
   xmlns="http://www.w3.org/2000/svg"
   xmlns:svg="http://www.w3.org/2000/svg"
   xmlns:rdf="http://www.w3.org/1999/02/22-rdf-syntax-ns#"
   xmlns:cc="http://creativecommons.org/ns#"
   xmlns:dc="http://purl.org/dc/elements/1.1/">
  <defs
     id="defs390" />
  <metadata
     id="metadata393">
    <rdf:RDF>
      <cc:Work
         rdf:about="">
        <dc:format>image/svg+xml</dc:format>
        <dc:type
           rdf:resource="http://purl.org/dc/dcmitype/StillImage" />
      </cc:Work>
    </rdf:RDF>
  </metadata>
  <g
     id="layer1"
     transform="translate(-365,-510)">
    <path
       d="m 378,512 c -1.108,0 -2,0.892 -2,2 v 2 h -1 v 2 h 1 v 5 c 10e-4,0.71326 0.3823,1.37187 1,1.7285 V 526 h 2 v -1.2695 c 0.61832,-0.35699 0.99945,-1.01652 1,-1.7305 v -5 h 1 v -2 h -1 v -2 c 0,-1.108 -0.892,-2 -2,-2 z m -10.00042,-2 v 2 h -2 v 2 L 368.009,513.99958 368,516 h 2 v -2 h 2 v -2 h -2 v -2 z M 377,518 h 2 v 5 c 0,0.55228 -0.44772,1 -1,1 -0.55228,0 -1,-0.44772 -1,-1 z m -9.5,3 c -0.831,0 -1.5,0.669 -1.5,1.5 v 0.5 1 h -1 v 2 h 8 v -2 h -1 v -1 -0.5 c 0,-0.831 -0.669,-1.5 -1.5,-1.5 z"
       fill="#8eef97"
       id="path991" />
    <path
       style="fill:#8eef97;fill-opacity:1;stroke:none;stroke-width:1px;stroke-linecap:butt;stroke-linejoin:miter;stroke-opacity:1"
       d="m 369,520 3,-3 h -6 z"
       id="path5506" />
  </g>
</svg>
